<svg width="1376" height="143" viewBox="0 0 1376 143" fill="none" xmlns="http://www.w3.org/2000/svg">
<path d="M1340 142.5C1313.4 142.5 1295.4 120.7 1295.4 90.5C1295.4 60.3 1315.4 38.5 1339.6 38.5C1361 38.5 1373.6 55.3 1373.6 79.3V87.3H1314.6C1317.2 109.5 1329.4 124.3 1346.2 124.3C1354.6 124.3 1363 120.7 1370.4 112.7L1375.6 115.3C1365.8 135.3 1355.2 142.5 1340 142.5ZM1353.4 79.3C1353.4 62.3 1344.2 50.7 1330.6 50.7C1314.8 50.7 1314.2 67.5 1314.2 79.3H1353.4Z" fill="#D9AD6B"/>
<path d="M1253.31 140.5V0.5H1275.31V140.5H1253.31Z" fill="#D9AD6B"/>
<path d="M1137.98 90.5C1137.98 60.3 1157.98 38.5 1185.78 38.5C1213.58 38.5 1233.38 60.1 1233.38 90.5C1233.38 120.9 1213.58 142.5 1185.78 142.5C1157.98 142.5 1137.98 120.7 1137.98 90.5ZM1195.38 130.3C1208.18 130.3 1214.38 121.3 1214.38 104.3C1214.38 75.9 1196.58 50.7 1176.18 50.7C1163.18 50.7 1156.78 59.7 1156.78 76.7C1156.78 104.9 1174.98 130.3 1195.38 130.3Z" fill="#D9AD6B"/>
<path d="M1034.75 140.5V0.5H1056.75V43.1C1051.75 48.9 1047.95 56.1 1044.95 65.1L1049.95 67.9C1057.35 52.5 1067.15 38.5 1086.15 38.5C1105.55 38.5 1117.95 51.7 1117.95 72.7C1117.95 88.5 1110.75 101.5 1110.75 116.5C1110.75 123.9 1112.55 131.7 1117.95 140.5H1096.55C1091.15 132.3 1089.35 124.9 1089.35 117.9C1089.35 103.9 1096.55 91.3 1096.55 76.7C1096.55 64.1 1090.55 56.7 1078.75 56.7C1069.35 56.7 1062.95 61.5 1056.75 68.3V140.5H1034.75Z" fill="#D9AD6B"/>
<path d="M860.944 0.5H886.144C886.144 23.7 890.144 40.1 895.744 53.7C905.944 78.5 914.744 94.3 916.144 126.7C926.544 105.5 930.744 77.7 925.944 57.9C919.744 43.1 915.144 25.5 914.944 0.5H940.144C940.144 23.7 944.144 40.1 949.744 53.7C959.744 78.3 968.544 93.9 970.144 125.3C976.744 107.1 973.944 87.5 972.144 68.5C969.144 34.7 972.744 16.1 991.744 0.5H1016.94L1018.34 3.9C999.544 19.1 993.144 38.3 991.344 68.5C989.744 95.9 992.744 122.5 970.544 140.5H946.744C946.744 122.7 944.744 109.3 941.344 97.3C937.144 115.1 928.544 130.7 916.544 140.5H892.744C892.744 102.1 883.344 84.5 871.944 57.7C865.744 43.1 861.144 25.5 860.944 0.5Z" fill="#D9AD6B"/>
<path d="M703.216 90.5C703.216 60.3 721.216 38.5 746.816 38.5C755.216 38.5 765.616 40.9 774.616 49.9V0.5H794.616V140.5H772.616V137.9C777.616 132.1 783.216 127.5 786.216 118.5L781.216 115.7C771.616 135.3 759.816 142.5 745.816 142.5C721.416 142.5 703.216 120.7 703.216 90.5ZM722.016 76.7C722.016 102.7 735.016 128.1 753.416 128.1C763.616 128.1 772.016 120.5 774.616 110.1V78.7C768.016 62.3 755.216 50.7 741.016 50.7C728.416 50.7 722.016 59.7 722.016 76.7Z" fill="#D9AD6B"/>
<path d="M661.122 140.5V0.5H683.122V140.5H661.122Z" fill="#D9AD6B"/>
<path d="M617.363 140.5V40.5H639.363V140.5H617.363ZM613.763 15.5C613.763 7.1 619.163 1.70001 627.563 1.70001C635.763 1.70001 641.163 7.1 641.163 15.5C641.163 23.7 635.763 29.1 627.563 29.1C619.163 29.1 613.763 23.7 613.763 15.5Z" fill="#D9AD6B"/>
<path d="M443.952 0.5H469.152C469.152 23.7 473.152 40.1 478.752 53.7C488.952 78.5 497.752 94.3 499.152 126.7C509.552 105.5 513.752 77.7 508.952 57.9C502.752 43.1 498.152 25.5 497.952 0.5H523.152C523.152 23.7 527.152 40.1 532.752 53.7C542.752 78.3 551.552 93.9 553.152 125.3C559.752 107.1 556.952 87.5 555.152 68.5C552.152 34.7 555.752 16.1 574.752 0.5H599.952L601.352 3.9C582.552 19.1 576.152 38.3 574.352 68.5C572.752 95.9 575.752 122.5 553.552 140.5H529.752C529.752 122.7 527.752 109.3 524.352 97.3C520.152 115.1 511.552 130.7 499.552 140.5H475.752C475.752 102.1 466.352 84.5 454.952 57.7C448.752 43.1 444.152 25.5 443.952 0.5Z" fill="#D9AD6B"/>
<path d="M345.863 142.5C319.263 142.5 301.263 120.7 301.263 90.5C301.263 60.3 321.263 38.5 345.463 38.5C366.863 38.5 379.463 55.3 379.463 79.3V87.3H320.463C323.063 109.5 335.263 124.3 352.063 124.3C360.463 124.3 368.863 120.7 376.263 112.7L381.463 115.3C371.663 135.3 361.063 142.5 345.863 142.5ZM359.263 79.3C359.263 62.3 350.063 50.7 336.463 50.7C320.663 50.7 320.063 67.5 320.063 79.3H359.263Z" fill="#D9AD6B"/>
<path d="M285.167 117.1C285.167 133.3 273.167 142.5 248.567 142.5C227.967 142.5 225.367 136.5 212.567 136.5L214.167 114.9C214.167 113.9 214.967 113.5 217.567 113.5C233.967 113.5 236.367 130.3 259.967 130.3C269.167 130.3 275.567 128.1 275.567 122.1C275.567 103.7 213.767 104.3 213.767 68.3C213.767 55.5 221.567 38.5 251.367 38.5C268.967 38.5 270.567 44.5 283.367 44.5L281.767 64.1C281.767 65.1 280.967 65.5 278.367 65.5C261.967 65.5 253.767 50.3 237.967 50.3C230.567 50.3 224.167 54.3 224.167 60.9C224.167 80.9 285.167 80.5 285.167 117.1Z" fill="#D9AD6B"/>
<path d="M173.808 140.5V40.5H195.808V140.5H173.808ZM170.208 15.5C170.208 7.1 175.608 1.70001 184.008 1.70001C192.208 1.70001 197.608 7.1 197.608 15.5C197.608 23.7 192.208 29.1 184.008 29.1C175.608 29.1 170.208 23.7 170.208 15.5Z" fill="#D9AD6B"/>
<path d="M0.396973 0.5H25.597C25.597 23.7 29.597 40.1 35.197 53.7C45.397 78.5 54.197 94.3 55.597 126.7C65.997 105.5 70.197 77.7 65.397 57.9C59.197 43.1 54.597 25.5 54.397 0.5H79.597C79.597 23.7 83.597 40.1 89.197 53.7C99.197 78.3 107.997 93.9 109.597 125.3C116.197 107.1 113.397 87.5 111.597 68.5C108.597 34.7 112.197 16.1 131.197 0.5H156.397L157.797 3.9C138.997 19.1 132.597 38.3 130.797 68.5C129.197 95.9 132.197 122.5 109.997 140.5H86.197C86.197 122.7 84.197 109.3 80.797 97.3C76.597 115.1 67.997 130.7 55.997 140.5H32.197C32.197 102.1 22.797 84.5 11.397 57.7C5.19697 43.1 0.596973 25.5 0.396973 0.5Z" fill="#D9AD6B"/>
</svg>
