<svg width="819" height="446" viewBox="0 0 819 446" fill="none" xmlns="http://www.w3.org/2000/svg">
<path d="M411.166 185.418C409.443 186.72 414.442 188.836 415.821 186.558C417.2 184.279 415.157 180.623 413.407 180.698C409.615 180.861 407.546 183.791 407.029 186.72C406.616 189.064 411.052 191.169 412.718 191.929C413.35 192.037 414.89 192.189 415.993 191.929C417.372 191.603 418.924 189.65 419.096 188.999C419.268 188.348 420.475 183.303 421.682 181.512C422.889 179.722 430.129 177.606 430.129 179.396C430.129 181.187 425.819 182.652 424.612 183.791C423.406 184.93 422.889 188.511 421.682 190.627C420.475 192.743 418.579 193.068 417.889 193.556C417.2 194.045 415.821 197.137 415.476 198.602C415.131 200.067 412.546 207.391 411.684 203.81C410.822 200.229 410.477 200.88 409.787 198.927C409.098 196.974 399.444 184.605 396.859 181.512C394.273 178.42 386.343 180.536 385.137 180.698C383.93 180.861 375.828 182.652 375.138 184.116C374.449 185.581 376.862 184.605 378.586 184.605C379.965 184.605 385.711 188.619 388.412 190.627C393.641 194.641 402.272 206.056 403.926 211.134C405.995 217.482 405.995 221.713 408.236 223.667C410.477 225.62 411.511 224.48 413.925 221.876C416.338 219.272 423.923 214.552 426.164 212.925C428.405 211.297 445.643 191.766 451.677 190.627C457.71 189.487 444.954 198.927 443.919 200.392C442.885 201.857 419.268 220.411 422.716 219.435C426.164 218.458 439.61 210.971 443.23 210.158C446.85 209.344 451.504 209.507 453.228 209.507C454.952 209.507 455.986 211.134 457.02 212.925C457.417 213.61 457.825 214.878 457.71 215.366C457.71 215.366 458.744 210.809 459.434 209.507C460.123 208.205 461.433 206.707 463.916 201.369C467.019 194.696 467.191 186.558 467.363 182.652C467.536 178.745 466.674 177.606 464.26 173.374C461.847 169.143 450.125 167.19 440.816 165.887C431.508 164.585 432.37 168.492 418.579 165.887M382.378 216.505C378.931 216.668 376.69 213.413 377.724 210.483C378.758 207.554 380.482 207.228 383.413 207.554C386.343 207.879 387.55 209.995 388.412 214.552C389.274 219.109 385.137 225.294 379.965 223.667C375.828 222.364 372.208 219.272 371.863 218.621C365.313 212.925 368.243 192.58 379.965 197.3C394.174 203.021 397.548 211.948 396.169 221.876C394.986 230.393 382.551 234.083 378.586 232.781C374.621 231.479 363.933 222.853 361.003 219.435C358.072 216.017 358.59 210.646 358.59 205.6C358.59 200.555 365.485 191.929 368.76 189.65C372.035 187.372 370.656 188.185 376.173 187.86C381.689 187.534 391.515 197.366 396.169 205.6C400.826 213.84 402.03 213.738 402.03 221.388C402.03 227.407 398.583 231.967 394.962 233.432C392.364 234.484 384.102 236.85 382.378 237.013C380.999 237.143 376.173 237.013 373.587 235.385C370.484 231.804 361.52 221.876 359.107 221.876C356.693 221.876 353.59 221.388 352.384 224.155C351.177 226.922 346.523 235.548 347.04 238.803C347.557 242.058 348.764 250.847 352.039 255.242C355.314 259.636 357.728 261.752 357.728 262.728C357.728 263.705 357.555 265.821 358.072 267.611C358.59 269.402 359.452 271.355 360.831 272.331C362.21 273.308 363.933 273.47 364.795 272.331C365.657 271.192 367.554 269.89 369.105 268.913C370.656 267.937 376.517 267.286 380.655 266.96C384.792 266.635 408.064 268.099 415.648 274.122C423.233 280.144 427.888 281.771 430.129 282.422C432.37 283.073 434.806 281.439 438.403 280.306C441.973 279.182 442.626 276.447 445.471 274.122C448.73 271.458 453.315 268.701 454.09 267.611C462.881 255.242 463.571 247.266 462.881 234.083C462.379 224.48 456.331 219.76 452.711 216.993C447.884 215.746 434.093 217.742 431.335 219.435C428.577 221.128 418.579 227.247 415.476 228.712C409.27 232.455 404.099 236.752 402.03 242.221C399.444 249.057 403.237 258.497 410.477 263.054C417.717 267.611 434.955 269.076 439.093 267.611C443.23 266.146 460.985 247.429 456.503 238.315C452.021 229.2 435.3 227.573 430.129 229.851C424.957 232.13 417.545 238.478 417.889 247.104C418.234 255.73 429.094 256.706 433.749 256.869C438.403 257.032 444.781 251.824 443.23 245.476C441.678 239.129 434.783 237.175 432.37 238.803M366.174 233.432C363.416 230.34 359.107 223.992 356.693 226.596C354.28 229.2 351.005 235.222 351.694 239.129C352.384 243.035 352.729 249.708 359.796 256.869C366.864 264.031 376.345 261.101 377.724 255.242C379.103 249.382 371.346 237.013 368.071 237.013C364.795 237.013 361.865 236.488 359.796 240.331C357.728 244.174 359.107 248.373 361.003 250.522C364.451 254.428 368.243 252.8 370.139 249.708C372.035 246.615 368.76 242.221 366.174 243.849M356.693 213.576C354.28 221.225 354.625 223.016 351.694 215.366C348.764 207.716 355.487 193.394 360.486 190.627C365.485 187.86 363.416 186.72 365.485 184.116C367.14 182.033 373.3 180.97 376.173 180.698C380.77 179.613 390.653 176.629 393.411 173.374C396.859 169.305 402.72 169.794 405.478 165.399C408.236 161.005 398.914 157.005 395.997 154.657C391.827 151.301 387.391 147.708 385.137 141.148C383.176 135.445 381.689 116.572 397.893 107.946C414.097 99.3195 446.333 102.737 455.469 112.34C464.605 121.943 471.328 140.334 469.777 151.565C468.225 162.795 468.649 171.254 464.26 168.492C460.123 165.887 444.264 161.656 437.196 162.47C430.129 163.283 418.407 161.33 409.787 154.657C401.168 147.984 396.686 131.546 401.685 123.408C406.685 115.27 418.751 108.597 437.196 114.944C450.987 119.69 457.057 132.589 451.677 142.45C445.815 153.192 435.472 154.1 424.612 150.588C417.717 148.359 414.442 140.823 415.993 130.895C417.545 120.966 430.064 120.006 437.886 125.686C442.368 128.941 442.713 133.987 439.61 137.73C437.506 140.268 427.026 143.427 425.13 136.428M361.52 285.189C361.52 289.746 361.003 290.235 358.59 294.792C356.656 298.443 358.072 302.279 359.279 304.72C360.486 307.161 370.139 311.881 373.415 313.834C376.69 315.788 381.517 325.39 379.276 327.669C377.035 329.948 379.276 333.528 380.138 334.179C380.999 334.83 384.102 334.83 385.654 337.597C387.205 340.364 385.309 340.69 389.101 341.992C392.894 343.294 399.962 342.48 402.547 339.713C405.133 336.946 403.754 336.946 408.064 334.179C412.373 331.412 417.717 321.159 414.959 317.09C412.201 313.021 412.546 308.626 414.097 306.022C415.648 303.418 427.888 296.419 428.75 289.746C429.611 283.073 429.956 288.933 415.648 278.679C401.341 268.425 378.758 270.541 370.656 272.331C362.554 274.122 364.184 287.01 363.244 290.56C362.727 292.513 361.83 293.034 361.003 294.466C359.969 296.257 359.796 297.396 359.796 299.675C359.796 301.953 362.382 305.208 364.795 305.208C367.209 305.208 369.967 303.906 370.656 301.465C371.346 299.023 371.518 297.07 369.622 295.28C368.195 293.933 366.347 293.652 364.795 294.792C363.244 295.931 362.727 297.884 363.761 299.675C364.466 300.895 368.071 300.814 367.209 298.535" stroke="#590000"/>
<g opacity="0.5">
<circle opacity="0.3" cx="409.5" cy="222.5" r="409" stroke="#FAD07D"/>
<circle opacity="0.3" cx="409.5" cy="222.5" r="359" stroke="#FAD07D"/>
<circle opacity="0.3" cx="409.5" cy="222.5" r="309" stroke="#FAD07D"/>
<circle opacity="0.3" cx="409.5" cy="222.5" r="259" stroke="#FAD07D"/>
<circle opacity="0.3" cx="409.5" cy="222.5" r="209" stroke="#FAD07D"/>
<circle opacity="0.3" cx="409.5" cy="222.5" r="159" stroke="#FAD07D"/>
<circle opacity="0.3" cx="409.5" cy="222.5" r="109" stroke="#FAD07D"/>
<circle opacity="0.3" cx="409.5" cy="222.5" r="59" stroke="#FAD07D"/>
<circle opacity="0.3" cx="409.5" cy="222.5" r="14" stroke="#FAD07D"/>
</g>
<circle cx="281.5" cy="84.5" r="18.5" fill="#8C1C1C"/>
<path d="M273.348 69.6961C277.882 68.1648 288.346 67.0077 293.934 74.6293C300.918 84.1562 296.961 99.6436 286.192 100.621C276.721 101.481 264.179 98.0733 265.325 86.3513C266.471 74.6293 273.348 71.8614 280.116 71.5697C287.903 71.2342 297.469 79.1442 294.32 89.4513C291.836 97.5814 282.319 100.92 276.007 98.0733C266.925 93.9774 267.942 89.9494 269.39 84.0884C270.839 78.2274 273.397 73.8474 281.976 74.6293C287.856 75.1652 292.592 82.3375 291.905 87.166C290.768 95.1569 282.322 97.9602 277.716 95.7651C273.11 93.5701 270.558 89.1121 271.596 85.1746C273.198 79.0963 278.387 76.5404 283.251 78.4537C287.025 79.9376 289.741 83.3535 288.917 87.4828C288.195 91.1002 284.333 93.9577 281.976 93.9577C279.619 93.9577 277.287 92.9823 276.007 90.6509C274.369 87.6651 275.186 84.3599 278.581 82.2554C280.585 81.0132 283.057 81.4498 284.441 82.7532C285.522 83.7716 286.552 85.4461 286.192 87.166C285.71 89.4741 283.554 90.9827 281.976 90.9375C280.397 90.8922 278.127 89.4063 278.127 87.8448C278.127 85.6498 279.965 84.0884 281.457 84.6315C281.457 84.6315 283.396 85.2662 283.619 86.3513C283.831 87.3791 283.43 88.3878 282.495 88.7726C281.572 89.1524 280.224 88.876 280.116 87.8448C280.047 87.1844 280.264 86.4254 280.894 86.3513C281.412 86.2906 281.867 86.6335 281.976 87.166" stroke="#FFF4DF"/>
<circle cx="389.5" cy="44.5" r="18.5" fill="#8C1C1C"/>
<path d="M381.348 29.6961C385.882 28.1648 396.346 27.0077 401.934 34.6293C408.918 44.1562 404.961 59.6436 394.192 60.6213C384.721 61.4812 372.179 58.0733 373.325 46.3513C374.471 34.6293 381.348 31.8614 388.116 31.5697C395.903 31.2342 405.469 39.1442 402.32 49.4513C399.836 57.5814 390.319 60.9198 384.007 58.0733C374.925 53.9774 375.942 49.9494 377.39 44.0884C378.839 38.2274 381.397 33.8474 389.976 34.6293C395.856 35.1652 400.592 42.3375 399.905 47.166C398.768 55.1569 390.322 57.9602 385.716 55.7651C381.11 53.5701 378.558 49.1121 379.596 45.1746C381.198 39.0963 386.387 36.5404 391.251 38.4537C395.025 39.9376 397.741 43.3535 396.917 47.4828C396.195 51.1002 392.333 53.9577 389.976 53.9577C387.619 53.9577 385.287 52.9823 384.007 50.6509C382.369 47.6651 383.186 44.3599 386.581 42.2554C388.585 41.0132 391.057 41.4498 392.441 42.7532C393.522 43.7716 394.552 45.4461 394.192 47.166C393.71 49.4741 391.554 50.9827 389.976 50.9375C388.397 50.8922 386.127 49.4063 386.127 47.8448C386.127 45.6498 387.965 44.0884 389.457 44.6315C389.457 44.6315 391.396 45.2662 391.619 46.3513C391.831 47.3791 391.43 48.3878 390.495 48.7726C389.572 49.1524 388.224 48.876 388.116 47.8448C388.047 47.1844 388.264 46.4254 388.894 46.3513C389.412 46.2906 389.867 46.6335 389.976 47.166" stroke="#FFF4DF"/>
<circle cx="500.5" cy="68.5" r="18.5" fill="#8C1C1C"/>
<path d="M492.348 53.6961C496.882 52.1648 507.346 51.0077 512.934 58.6293C519.918 68.1562 515.961 83.6436 505.192 84.6213C495.721 85.4812 483.179 82.0733 484.325 70.3513C485.471 58.6293 492.348 55.8614 499.116 55.5697C506.903 55.2342 516.469 63.1442 513.32 73.4513C510.836 81.5814 501.319 84.9198 495.007 82.0733C485.925 77.9774 486.942 73.9494 488.39 68.0884C489.839 62.2274 492.397 57.8474 500.976 58.6293C506.856 59.1652 511.592 66.3375 510.905 71.166C509.768 79.1569 501.322 81.9602 496.716 79.7651C492.11 77.5701 489.558 73.1121 490.596 69.1746C492.198 63.0963 497.387 60.5404 502.251 62.4537C506.025 63.9376 508.741 67.3535 507.917 71.4828C507.195 75.1002 503.333 77.9577 500.976 77.9577C498.619 77.9577 496.287 76.9823 495.007 74.6509C493.369 71.6651 494.186 68.3599 497.581 66.2554C499.585 65.0132 502.057 65.4498 503.441 66.7532C504.522 67.7716 505.552 69.4461 505.192 71.166C504.71 73.4741 502.554 74.9827 500.976 74.9375C499.397 74.8922 497.127 73.4063 497.127 71.8448C497.127 69.6498 498.965 68.0884 500.457 68.6315C500.457 68.6315 502.396 69.2662 502.619 70.3513C502.831 71.3791 502.43 72.3878 501.495 72.7726C500.572 73.1524 499.224 72.876 499.116 71.8448C499.047 71.1844 499.264 70.4254 499.894 70.3513C500.412 70.2906 500.867 70.6335 500.976 71.166" stroke="#FFF4DF"/>
<circle cx="569.5" cy="144.5" r="18.5" fill="#8C1C1C"/>
<path d="M561.348 129.696C565.882 128.165 576.346 127.008 581.934 134.629C588.918 144.156 584.961 159.644 574.192 160.621C564.721 161.481 552.179 158.073 553.325 146.351C554.471 134.629 561.348 131.861 568.116 131.57C575.903 131.234 585.469 139.144 582.32 149.451C579.836 157.581 570.319 160.92 564.007 158.073C554.925 153.977 555.942 149.949 557.39 144.088C558.839 138.227 561.397 133.847 569.976 134.629C575.856 135.165 580.592 142.338 579.905 147.166C578.768 155.157 570.322 157.96 565.716 155.765C561.11 153.57 558.558 149.112 559.596 145.175C561.198 139.096 566.387 136.54 571.251 138.454C575.025 139.938 577.741 143.354 576.917 147.483C576.195 151.1 572.333 153.958 569.976 153.958C567.619 153.958 565.287 152.982 564.007 150.651C562.369 147.665 563.186 144.36 566.581 142.255C568.585 141.013 571.057 141.45 572.441 142.753C573.522 143.772 574.552 145.446 574.192 147.166C573.71 149.474 571.554 150.983 569.976 150.937C568.397 150.892 566.127 149.406 566.127 147.845C566.127 145.65 567.965 144.088 569.457 144.631C569.457 144.631 571.396 145.266 571.619 146.351C571.831 147.379 571.43 148.388 570.495 148.773C569.572 149.152 568.224 148.876 568.116 147.845C568.047 147.184 568.264 146.425 568.894 146.351C569.412 146.291 569.867 146.634 569.976 147.166" stroke="#FFF4DF"/>
<circle cx="578.5" cy="255.5" r="18.5" fill="#8C1C1C"/>
<path d="M570.348 240.696C574.882 239.165 585.346 238.008 590.934 245.629C597.918 255.156 593.961 270.644 583.192 271.621C573.721 272.481 561.179 269.073 562.325 257.351C563.471 245.629 570.348 242.861 577.116 242.57C584.903 242.234 594.469 250.144 591.32 260.451C588.836 268.581 579.319 271.92 573.007 269.073C563.925 264.977 564.942 260.949 566.39 255.088C567.839 249.227 570.397 244.847 578.976 245.629C584.856 246.165 589.592 253.338 588.905 258.166C587.768 266.157 579.322 268.96 574.716 266.765C570.11 264.57 567.558 260.112 568.596 256.175C570.198 250.096 575.387 247.54 580.251 249.454C584.025 250.938 586.741 254.354 585.917 258.483C585.195 262.1 581.333 264.958 578.976 264.958C576.619 264.958 574.287 263.982 573.007 261.651C571.369 258.665 572.186 255.36 575.581 253.255C577.585 252.013 580.057 252.45 581.441 253.753C582.522 254.772 583.552 256.446 583.192 258.166C582.71 260.474 580.554 261.983 578.976 261.937C577.397 261.892 575.127 260.406 575.127 258.845C575.127 256.65 576.965 255.088 578.457 255.631C578.457 255.631 580.396 256.266 580.619 257.351C580.831 258.379 580.43 259.388 579.495 259.773C578.572 260.152 577.224 259.876 577.116 258.845C577.047 258.184 577.264 257.425 577.894 257.351C578.412 257.291 578.867 257.634 578.976 258.166" stroke="#FFF4DF"/>
<circle cx="541.5" cy="342.5" r="18.5" fill="#8C1C1C"/>
<path d="M533.348 327.696C537.882 326.165 548.346 325.008 553.934 332.629C560.918 342.156 556.961 357.644 546.192 358.621C536.721 359.481 524.179 356.073 525.325 344.351C526.471 332.629 533.348 329.861 540.116 329.57C547.903 329.234 557.469 337.144 554.32 347.451C551.836 355.581 542.319 358.92 536.007 356.073C526.925 351.977 527.942 347.949 529.39 342.088C530.839 336.227 533.397 331.847 541.976 332.629C547.856 333.165 552.592 340.338 551.905 345.166C550.768 353.157 542.322 355.96 537.716 353.765C533.11 351.57 530.558 347.112 531.596 343.175C533.198 337.096 538.387 334.54 543.251 336.454C547.025 337.938 549.741 341.354 548.917 345.483C548.195 349.1 544.333 351.958 541.976 351.958C539.619 351.958 537.287 350.982 536.007 348.651C534.369 345.665 535.186 342.36 538.581 340.255C540.585 339.013 543.057 339.45 544.441 340.753C545.522 341.772 546.552 343.446 546.192 345.166C545.71 347.474 543.554 348.983 541.976 348.937C540.397 348.892 538.127 347.406 538.127 345.845C538.127 343.65 539.965 342.088 541.457 342.631C541.457 342.631 543.396 343.266 543.619 344.351C543.831 345.379 543.43 346.388 542.495 346.773C541.572 347.152 540.224 346.876 540.116 345.845C540.047 345.184 540.264 344.425 540.894 344.351C541.412 344.291 541.867 344.634 541.976 345.166" stroke="#FFF4DF"/>
<circle cx="442.5" cy="400.5" r="18.5" fill="#8C1C1C"/>
<path d="M434.348 385.696C438.882 384.165 449.346 383.008 454.934 390.629C461.918 400.156 457.961 415.644 447.192 416.621C437.721 417.481 425.179 414.073 426.325 402.351C427.471 390.629 434.348 387.861 441.116 387.57C448.903 387.234 458.469 395.144 455.32 405.451C452.836 413.581 443.319 416.92 437.007 414.073C427.925 409.977 428.942 405.949 430.39 400.088C431.839 394.227 434.397 389.847 442.976 390.629C448.856 391.165 453.592 398.338 452.905 403.166C451.768 411.157 443.322 413.96 438.716 411.765C434.11 409.57 431.558 405.112 432.596 401.175C434.198 395.096 439.387 392.54 444.251 394.454C448.025 395.938 450.741 399.354 449.917 403.483C449.195 407.1 445.333 409.958 442.976 409.958C440.619 409.958 438.287 408.982 437.007 406.651C435.369 403.665 436.186 400.36 439.581 398.255C441.585 397.013 444.057 397.45 445.441 398.753C446.522 399.772 447.552 401.446 447.192 403.166C446.71 405.474 444.554 406.983 442.976 406.937C441.397 406.892 439.127 405.406 439.127 403.845C439.127 401.65 440.965 400.088 442.457 400.631C442.457 400.631 444.396 401.266 444.619 402.351C444.831 403.379 444.43 404.388 443.495 404.773C442.572 405.152 441.224 404.876 441.116 403.845C441.047 403.184 441.264 402.425 441.894 402.351C442.412 402.291 442.867 402.634 442.976 403.166" stroke="#FFF4DF"/>
<circle cx="328.5" cy="384.5" r="18.5" fill="#8C1C1C"/>
<path d="M320.348 369.696C324.882 368.165 335.346 367.008 340.934 374.629C347.918 384.156 343.961 399.644 333.192 400.621C323.721 401.481 311.179 398.073 312.325 386.351C313.471 374.629 320.348 371.861 327.116 371.57C334.903 371.234 344.469 379.144 341.32 389.451C338.836 397.581 329.319 400.92 323.007 398.073C313.925 393.977 314.942 389.949 316.39 384.088C317.839 378.227 320.397 373.847 328.976 374.629C334.856 375.165 339.592 382.338 338.905 387.166C337.768 395.157 329.322 397.96 324.716 395.765C320.11 393.57 317.558 389.112 318.596 385.175C320.198 379.096 325.387 376.54 330.251 378.454C334.025 379.938 336.741 383.354 335.917 387.483C335.195 391.1 331.333 393.958 328.976 393.958C326.619 393.958 324.287 392.982 323.007 390.651C321.369 387.665 322.186 384.36 325.581 382.255C327.585 381.013 330.057 381.45 331.441 382.753C332.522 383.772 333.552 385.446 333.192 387.166C332.71 389.474 330.554 390.983 328.976 390.937C327.397 390.892 325.127 389.406 325.127 387.845C325.127 385.65 326.965 384.088 328.457 384.631C328.457 384.631 330.396 385.266 330.619 386.351C330.831 387.379 330.43 388.388 329.495 388.773C328.572 389.152 327.224 388.876 327.116 387.845C327.047 387.184 327.264 386.425 327.894 386.351C328.412 386.291 328.867 386.634 328.976 387.166" stroke="#FFF4DF"/>
<circle cx="250.5" cy="313.5" r="18.5" fill="#8C1C1C"/>
<path d="M242.348 298.696C246.882 297.165 257.346 296.008 262.934 303.629C269.918 313.156 265.961 328.644 255.192 329.621C245.721 330.481 233.179 327.073 234.325 315.351C235.471 303.629 242.348 300.861 249.116 300.57C256.903 300.234 266.469 308.144 263.32 318.451C260.836 326.581 251.319 329.92 245.007 327.073C235.925 322.977 236.942 318.949 238.39 313.088C239.839 307.227 242.397 302.847 250.976 303.629C256.856 304.165 261.592 311.338 260.905 316.166C259.768 324.157 251.322 326.96 246.716 324.765C242.11 322.57 239.558 318.112 240.596 314.175C242.198 308.096 247.387 305.54 252.251 307.454C256.025 308.938 258.741 312.354 257.917 316.483C257.195 320.1 253.333 322.958 250.976 322.958C248.619 322.958 246.287 321.982 245.007 319.651C243.369 316.665 244.186 313.36 247.581 311.255C249.585 310.013 252.057 310.45 253.441 311.753C254.522 312.772 255.552 314.446 255.192 316.166C254.71 318.474 252.554 319.983 250.976 319.937C249.397 319.892 247.127 318.406 247.127 316.845C247.127 314.65 248.965 313.088 250.457 313.631C250.457 313.631 252.396 314.266 252.619 315.351C252.831 316.379 252.43 317.388 251.495 317.773C250.572 318.152 249.224 317.876 249.116 316.845C249.047 316.184 249.264 315.425 249.894 315.351C250.412 315.291 250.867 315.634 250.976 316.166" stroke="#FFF4DF"/>
<circle cx="231.5" cy="204.5" r="18.5" fill="#8C1C1C"/>
<path d="M223.348 189.696C227.882 188.165 238.346 187.008 243.934 194.629C250.918 204.156 246.961 219.644 236.192 220.621C226.721 221.481 214.179 218.073 215.325 206.351C216.471 194.629 223.348 191.861 230.116 191.57C237.903 191.234 247.469 199.144 244.32 209.451C241.836 217.581 232.319 220.92 226.007 218.073C216.925 213.977 217.942 209.949 219.39 204.088C220.839 198.227 223.397 193.847 231.976 194.629C237.856 195.165 242.592 202.338 241.905 207.166C240.768 215.157 232.322 217.96 227.716 215.765C223.11 213.57 220.558 209.112 221.596 205.175C223.198 199.096 228.387 196.54 233.251 198.454C237.025 199.938 239.741 203.354 238.917 207.483C238.195 211.1 234.333 213.958 231.976 213.958C229.619 213.958 227.287 212.982 226.007 210.651C224.369 207.665 225.186 204.36 228.581 202.255C230.585 201.013 233.057 201.45 234.441 202.753C235.522 203.772 236.552 205.446 236.192 207.166C235.71 209.474 233.554 210.983 231.976 210.937C230.397 210.892 228.127 209.406 228.127 207.845C228.127 205.65 229.965 204.088 231.457 204.631C231.457 204.631 233.396 205.266 233.619 206.351C233.831 207.379 233.43 208.388 232.495 208.773C231.572 209.152 230.224 208.876 230.116 207.845C230.047 207.184 230.264 206.425 230.894 206.351C231.412 206.291 231.867 206.634 231.976 207.166" stroke="#FFF4DF"/>
</svg>
