<svg width="832" height="273" viewBox="0 0 832 273" fill="none" xmlns="http://www.w3.org/2000/svg">
<path d="M-5.5 272.5L2 267.5C3.5 266.5 6.5 263.5 6.5 259.5C6.5 254.5 -2 250.5 4.5 249C11 247.5 14.5 245.5 13 244C11.5 242.5 15.5 240.5 18 239.5C20.5 238.5 15.5 235 18 233.5C19.9612 232.323 19.839 229.768 19.5192 228.57C19.7181 229.228 20.455 230.045 22 228.5C24 226.5 23 226.5 22.5 225C22 223.5 19.5 224.5 21.5 223C23.5 221.5 20 221.5 21.5 220.5C23 219.5 22 219.5 25 219C28 218.5 28 219.5 30.5 219C33 218.5 36.5 217 37.5 216.5C38.5 216 29 218 27.5 218C26 218 27 216 29.5 215.5C32 215 34 215 35.5 215C37 215 39 215 39.5 214C40 213 37 213 39 212.5C39.8 211.3 39 210 38.5 209.5C39.1667 209.167 40.7 208.5 41.5 208.5C42.5 208.5 40 207 40.5 206.5C41 206 41.5 205 42.5 206C43.5 207 43.5 208 44.5 208C45.5 208 48 208 47 207C46 206 43.5 207.5 44 206C44.4 204.8 46.5 204.167 47.5 204C48 204.333 49.3 204.7 50.5 203.5C52 202 53 201.5 50.5 201.5C48 201.5 44.5 202 48.5 200.5C52.5 199 50 198 50.5 195.5C51 193 51.5 191.5 51 191C50.5 190.5 50 191 50 190C50 189 50 189 51 188.5C52 188 52 188 51.5 187C51 186 53 186 54 186C55 186 53 185.5 54 185C55 184.5 56.5 184.5 57.5 184.5C58.5 184.5 58.5 184 57.5 183.5C56.5 183 55 181.5 58.5 181.5C62 181.5 63 182.5 62.5 181C62 179.5 59.5 179 59 179C58.5 179 63 178 64 178.5C65 179 66 179.5 67 179C68 178.5 66.5 177.5 66 177.5C65.5 177.5 68 176.5 68.5 176.5C69 176.5 70.5 175.5 70.5 174.5C70.5 173.5 72 172.5 73 172.5H77C78 172.5 83 171.5 85 171.5H75.5C75 171.5 84.5 170.5 85.5 170.5C86.5 170.5 85.5 171.5 88 170.5C90.5 169.5 94 168.5 91.5 168.5C89 168.5 88 167 87 167C86 167 90 164.5 91.5 164.5C93 164.5 96 164 98 164C100 164 101 163.5 102.5 163.5C104 163.5 105.5 162.5 107 162.5C108.5 162.5 102.5 162 101.5 162C100.5 162 105.5 162 107 161.5C108.5 161 109.5 161 110.5 160C111.5 159 112.5 159 113 159C113.4 159 115.167 157 116 156L110.5 153L-6 156L-5.5 272.5Z" fill="#590000"/>
<path d="M91.4999 139C90.0718 137.961 87.167 136.174 84.8183 135.624C83.0514 135.662 82.175 135.638 82.9999 135.5C83.5304 135.412 84.152 135.468 84.8183 135.624C89.4768 135.526 100.325 135 102.5 135C105.5 135 82.5 134.5 83 134C83.5 133.5 133.5 134 129.5 132.5C126.3 131.3 111.167 130.333 104 130C116.667 130.333 141.6 130.7 140 129.5C138 128 112 128 112.5 127.5C112.9 127.1 138.333 126.333 151 126L142 123.5C148.167 122.167 160.7 119.3 161.5 118.5C162.3 117.7 138.833 114.833 127 113.5H45.5L32 123.5L56 145.5L91.4999 139Z" fill="#590000"/>
<path d="M22.5 88.4999C20.5 90.0999 16.3333 90.8332 14.5 90.9999L26.5 107C40.1667 108 67.9 109.8 69.5 109C71.1 108.2 102.833 109.333 118.5 110L166.5 107C166.167 106.833 165.2 106.3 164 105.5C162.8 104.7 159.167 104.167 157.5 104L154.5 102C152.667 101.833 148.7 101.4 147.5 101C146 100.5 142.5 100.5 140 98.5C137.5 96.5 133 95.5 131.5 95.5C130 95.5 129 95.5 123 96.5C117 97.5 114 95.5 110 94.5C106 93.5 108 90.9999 106.5 90.9999H102C101 90.9999 98 91.5 90.5 90.4999C86.9678 90.0289 86.037 87.4925 86 86.5C85.8497 86.5056 84.7253 88.59 84.5 88.4999C82.5 87.6998 77.6667 87.1666 75.5 87C73 87.1667 67.7 87.1 66.5 85.4999C65 83.4998 59.5 84 53.5 81.9999C47.5 79.9998 48.5 83.4999 46 82.9999C43.5 82.4999 48.5 78.9999 46 79.4999C43.5 79.9999 42.5 85.4999 42 85.4999C41.5 85.4999 39 86.9999 36.5 85.4999C34 83.9999 33.5 81.9999 32 81.9999C30.5 81.9999 34 85.9999 30 85.4999C26 84.9999 25 86.4999 22.5 88.4999Z" fill="#590000"/>
<path d="M419.5 107.5C419.5 107 419.9 106 421.5 106C423.5 106 424 106 424.5 105.5C424.9 105.1 427.667 106.333 429 107C430.833 107.167 434.7 107.6 435.5 108C436.5 108.5 438 108.5 438.5 108.5C439 108.5 443 109.5 443.5 109C444 108.5 447.5 108.5 448 108.5C448.5 108.5 450.5 108.5 451 109C451.4 109.4 454.5 110.5 456 111L458.5 110.5L467.5 112.5H479C481.5 112.333 486.9 111.8 488.5 111C490.5 110 488.5 110 492.5 108.5C496.5 107 505 105.5 506.5 106C508 106.5 513 106.5 514.5 107C516 107.5 514.5 108.5 516.5 108.5C518.5 108.5 525.5 106 526 106C526.5 106 531 105 533.5 105C536 105 537.5 105.5 539 106C540.5 106.5 541 107 542 107C543 107 543.5 107 545.5 106.5C547.1 106.1 548.5 106 549 106C551.5 106.167 556.9 106.6 558.5 107C560.5 107.5 560.5 107 563 107.5C565.5 108 567 109 569 109C571 109 571.5 108.5 574.5 108.5C577.5 108.5 580 109.5 580.5 109C581 108.5 579.5 106.5 581.5 108C583.5 109.5 587.5 110 590 110C592.5 110 591.5 109.5 593.5 109.5C595.5 109.5 597 110.5 597.5 110.5C598 110.5 612 111 613.5 111C615 111 614 111 616 111.5C618 112 620 112.5 622 112C624 111.5 630.5 112.5 632.5 111.5C634.5 110.5 636 110 637 110.5C638 111 639.5 112 640 112C640.5 112 649.5 111.5 650 111.5C650.4 111.5 651.833 112.167 652.5 112.5L601.5 113H521H483.5L419.5 112.5V107.5Z" fill="#FAD07D"/>
<path d="M385 109.5C385.333 108.833 386.4 107.6 388 108C390 108.5 391.5 107.5 392.5 107.5C393.5 107.5 397 108 397.5 108H402C403.5 108 406 108.5 407.5 108C409 107.5 412.5 109 414 108C415.2 107.2 416.833 106.333 417.5 106C419.667 106.5 424.5 107.6 426.5 108C429 108.5 431.5 110 433.5 110C435.5 110 442.5 110.5 443.5 110.5C444.5 110.5 446 110.5 447 111C448 111.5 449 112.5 450 112.5C451 112.5 456 112 457.5 111.5C459 111 461.5 109.5 463 109.5C464.5 109.5 467 109.5 468.5 110C470 110.5 472.5 111.5 473.5 111C474.3 110.6 476.167 109.833 477 109.5C477.667 110.167 479.2 111.5 480 111.5C481 111.5 485 111 485.5 111C485.9 111 488 111.333 489 111.5H500.5C502 111.5 503 111.5 504 112C504.8 112.4 509 113.167 511 113.5H521.5L527.5 111.5C529 111 529.5 110 532.5 110.5C535.5 111 543 111.5 544 111.5C545 111.5 550.5 110 552.5 110C554.5 110 556.5 109.5 558 110C559.5 110.5 558.5 109.5 561.5 110.5C564.5 111.5 569 111.5 569.5 111.5C570 111.5 574 111 575 111C576 111 580.499 111 581.249 111.5C581.85 111.9 582 112.333 582 112.5L541 115H513L505.5 113.5L498 112.5L428 114L385 111V109.5Z" fill="#590000"/>
<path d="M37.5 123C53 120.667 86.6 116.2 97 117C110 118 122.5 120 145 120C167.5 120 173.5 117 189 117C204.5 117 244.5 115.5 255 115.5C265.5 115.5 294 112.5 297 115.5C300 118.5 306.5 115.5 314 115.5C321.5 115.5 340.5 117 351.5 117C362.5 117 454.5 115.5 462 115.5C469.5 115.5 496.5 112.5 503 114C509.5 115.5 510.5 115.5 518 115.5C525.5 115.5 558 117 564.5 115.5C571 114 572.5 114 580 114H622.5H650.5C656 114 667.5 112 670 112H578C568.5 112 395.5 112.5 390 109.5C384.5 106.5 354 106 347.5 105.5C341 105 327.4 102.665 318.5 104C308.5 105.5 297 107 290.5 104C285.052 101.486 214.5 101.5 203.5 105.5C192.5 109.5 172 103.5 169.5 105.5C167 107.5 77.5 105.5 68.5 105.5C61.3 105.5 31.1667 103.167 17 102L37.5 123Z" fill="#8C1C1C"/>
<path d="M-3 68.5002C-0.666667 68.1668 4 68.1002 4 70.5002C4 73.5002 11.5 72.5 12 76C12.5 79.5 12 83 14.5 85C17 87 20.5 89 21 91C21.5 93 20 90.5 25 98.5C30 106.5 31.5 105.5 34.5 109.5C37.5 113.5 38.5 116.5 40 118C41.5 119.5 43.5 122.5 46 124C48.5 125.5 51 127.5 54 128C57 128.5 58.5 129 62.5 131.5C66.5 134 68 135.5 79 137.5C90 139.5 90.5 135 93.5 137.5C95.9 139.5 101.167 144 103.5 146C106.833 146.167 113.8 147 115 149C116.5 151.5 118 154.5 116.5 156C115 157.5 88 153.5 86 156C84 158.5 83 157 81 159.5C79 162 80.5 164 76 163.5C71.5 163 69 158.5 62.5 161C55.7 165 48.6667 170.333 46 172.5H32H14.5C9.7 172.5 3.5 170.833 1 170H-6L-3 68.5002Z" fill="#8C1C1C"/>
<circle cx="738.5" cy="10.5" r="34.5" fill="#FAD07D"/>
<path d="M723.297 -17.1067C731.752 -19.9623 751.267 -22.1201 761.687 -7.90693C774.713 9.85955 767.333 38.7414 747.251 40.5647C729.588 42.1683 706.199 35.813 708.336 13.953C710.473 -7.90694 723.297 -13.0687 735.919 -13.6126C750.441 -14.2384 768.28 0.512835 762.407 19.7342C757.775 34.8957 740.028 41.1213 728.257 35.813C711.32 28.1746 713.215 20.6629 715.917 9.73295C718.619 -1.19702 723.39 -9.36497 739.387 -7.90693C750.353 -6.90749 759.184 6.46791 757.904 15.4722C755.784 30.3742 740.032 35.602 731.443 31.5085C722.853 27.415 718.095 19.1015 720.031 11.7586C723.019 0.423434 732.694 -4.34292 741.766 -0.775015C748.803 1.99236 753.868 8.36258 752.332 16.0631C750.985 22.8091 743.783 28.1379 739.387 28.1379C734.991 28.1379 730.643 26.319 728.257 21.9711C725.201 16.4031 726.725 10.2394 733.056 6.3147C736.793 3.99825 741.403 4.81236 743.984 7.24311C746 9.14214 747.921 12.265 747.251 15.4722C746.351 19.7767 742.331 22.59 739.387 22.5056C736.443 22.4212 732.209 19.6501 732.209 16.7383C732.209 12.6448 735.637 9.73295 738.419 10.7458C738.419 10.7458 742.036 11.9294 742.452 13.953C742.846 15.8697 742.098 17.7508 740.355 18.4685C738.634 19.1767 736.121 18.6613 735.919 16.7383C735.789 15.5067 736.194 14.0912 737.371 13.953C738.335 13.8397 739.184 14.4794 739.387 15.4722" stroke="#8C1C1C"/>
<path d="M813 156.5H833.5L835.5 128H733L709 126L702 127H691C689.936 127.266 688.392 127.645 687.359 127.881C690.244 127.722 698.177 128.5 699.5 128.5C701 128.5 684 130 687 130.5C690 131 697 130 700.5 130H707.5L706.5 132C707 132.167 708.5 132.4 710.5 132C713 131.5 714.5 132.5 719 133.5C722.6 134.3 726.833 135.167 728.5 135.5C725 135.5 718.759 136.247 718 136.5C716.5 137 724 136.5 727 136.5C729.4 136.5 722.667 137.5 719 138C721.833 138.167 728.4 138.4 732 138C736.5 137.5 743.5 138.5 744 139C744.4 139.4 752.167 140.833 756 141.5C746.833 141.167 727.5 141.833 727 142.5C726.5 143.167 764 142 765 142.5C766 143 753.5 144 757 144C760.5 144 779.5 144.5 783.5 145.5C783 146.5 780.5 146.5 777.5 146.5H765.5C767 146.5 772 147.5 775.5 147.5C778.3 147.5 782.333 149.167 784 150C788.167 149.833 797.6 149.4 802 149C807.5 148.5 811.5 151 808 151C804.5 151 805 152 794 151C783 150 798 153 800.5 153H811.5C816.5 153 829.5 154.5 827 154.5C824.5 154.5 810.5 156.5 813 156.5Z" fill="#590000"/>
<path d="M694.5 132C695.018 131.482 696.265 131.635 697.395 131.943L694.675 131C694.117 131.167 692.9 131.5 692.5 131.5H690C688.5 131.5 687.5 132 686.721 131.5C685.943 131 685 131.5 684 131C683 130.5 672 131.5 673 131.5C674 131.5 678 132 680 132L684 132C684.5 132 686 132.5 687.359 133C688.719 133.5 690 133.5 691 133.5C692 133.5 693.5 133 694.5 132Z" fill="#590000"/>
<path d="M832.5 100.5C831 101 823 101 822.5 102.5C822 104 820.5 104 818.5 104C816.5 104 817 101 814.5 102.5C812 104 808 103 805.5 104C803 105 800.5 105.5 798 105.5C795.5 105.5 795 106 793.5 105.5C792 105 785 105 783 106.5C779.5 110.5 781 111 776.5 111C772 111 772.5 108 769 110C765.5 112 768 111.5 763 112.5C758 113.5 753.5 113.5 752 113.5H746C743 113.5 743 114.5 741.5 114.5C740.3 114.5 738.333 113.833 737.5 113.5C737 113.167 735.7 112.9 734.5 114.5C733 116.5 731.5 116.5 730 116.5C728.5 116.5 723 116 722 117C721 118 723 119 719.5 120C716 121 709 120 708 122C707 124 706.5 126.5 704.5 126C702.5 125.5 699.5 126 697 126C694.5 126 691 125 689 126.5C687 128 682.5 127.5 681 128C679.5 128.5 694.5 127 699.5 128C704.5 129 707 126.5 712 128C717 129.5 719 128 723 130C727 132 729.5 132.5 734.5 133C739.5 133.5 743 132.5 746 132C749 131.5 757.5 132 764 132C770.5 132 770 132.5 776.5 133.5C783 134.5 793 134 795.5 133.5C798 133 803.5 133.5 810 133.5C816.5 133.5 817.5 130.5 820.5 134.5C823.5 138.5 826 141.5 827 141.5C828 141.5 829.5 142.5 831.5 141.5C833.1 140.7 835.167 139.5 836 139L832.5 100.5Z" fill="#8C1C1C"/>
</svg>
