<svg width="505" height="498" viewBox="0 0 505 498" fill="none" xmlns="http://www.w3.org/2000/svg">
<path d="M415 249.5C415 339.246 342.246 412 252.5 412C162.754 412 90 339.246 90 249.5C90 159.754 162.754 87 252.5 87C342.246 87 415 159.754 415 249.5Z" fill="#FAD07D"/>
<path d="M438.5 249.5C438.5 352.225 355.225 435.5 252.5 435.5C149.775 435.5 66.5 352.225 66.5 249.5C66.5 146.775 149.775 63.5 252.5 63.5C355.225 63.5 438.5 146.775 438.5 249.5Z" stroke="#FAD07D" stroke-width="3"/>
<path d="M463.5 249.5C463.5 366.032 369.032 460.5 252.5 460.5C135.968 460.5 41.5 366.032 41.5 249.5C41.5 132.968 135.968 38.5 252.5 38.5C369.032 38.5 463.5 132.968 463.5 249.5Z" stroke="#FAD07D" stroke-width="3"/>
<path d="M488.5 249.5C488.5 379.839 382.839 485.5 252.5 485.5C122.161 485.5 16.5 379.839 16.5 249.5C16.5 119.161 122.161 13.5 252.5 13.5C382.839 13.5 488.5 119.161 488.5 249.5Z" stroke="#FAD07D" stroke-width="3"/>
<path d="M513.5 249.5C513.5 393.646 396.646 510.5 252.5 510.5C108.354 510.5 -8.5 393.646 -8.5 249.5C-8.5 105.354 108.354 -11.5 252.5 -11.5C396.646 -11.5 513.5 105.354 513.5 249.5Z" stroke="#FAD07D" stroke-width="3"/>
<path d="M538.5 249.5C538.5 407.453 410.453 535.5 252.5 535.5C94.5466 535.5 -33.5 407.453 -33.5 249.5C-33.5 91.5466 94.5466 -36.5 252.5 -36.5C410.453 -36.5 538.5 91.5466 538.5 249.5Z" stroke="#FAD07D" stroke-width="3"/>
<path d="M563.5 249.5C563.5 421.261 424.261 560.5 252.5 560.5C80.7394 560.5 -58.5 421.261 -58.5 249.5C-58.5 77.7394 80.7394 -61.5 252.5 -61.5C424.261 -61.5 563.5 77.7394 563.5 249.5Z" stroke="#FAD07D" stroke-width="3"/>
<path d="M588.5 249.5C588.5 435.068 438.068 585.5 252.5 585.5C66.9323 585.5 -83.5 435.068 -83.5 249.5C-83.5 63.9323 66.9323 -86.5 252.5 -86.5C438.068 -86.5 588.5 63.9323 588.5 249.5Z" stroke="#FAD07D" stroke-width="3"/>
<path d="M221.153 269.466C234.671 253.413 243.965 240.741 248.611 217.929C256.637 240.741 261.67 248.822 278.604 266.086C256.614 263.578 242.697 264.397 221.153 269.466Z" fill="#590000"/>
<path d="M221.153 269.466C234.671 253.413 243.965 240.741 248.611 217.929M221.153 269.466C242.697 264.397 256.614 263.578 278.604 266.086M221.153 269.466C157.367 305.794 184.402 393.237 247.344 393.237C319.579 393.237 323.381 286.389 253.258 285.518C197.925 284.831 191.584 369.581 248.189 369.581C288.32 369.581 292.121 310.019 253.258 310.019C226.223 310.019 225.8 345.503 248.189 345.503C260.374 345.503 259.172 331.14 251.991 331.14M248.611 217.929C256.637 240.741 261.67 248.822 278.604 266.086M248.611 217.929C246.5 128.373 148.823 131.231 127.375 178.642C95.2703 249.61 193.464 296.077 221.153 230.178C241.743 181.177 176.376 146.41 150.186 186.669C126.598 222.926 179.812 257.136 197.498 225.11C213.128 196.807 179.401 186.669 170.885 198.497C161.591 211.404 178.066 219.618 180.178 210.747M278.604 266.086C348.304 306.216 409.466 231.497 373.227 179.065C333.519 121.614 244.81 171.884 280.716 233.56C306.85 278.45 383.366 242.007 353.373 192.16C334.056 160.056 280.716 185.402 299.303 217.929C305.578 228.912 316.2 231.869 325.071 228.912C333.942 225.955 339.69 213.872 334.364 205.678C328.873 197.23 316.2 201.031 319.579 209.058" stroke="#590000" stroke-width="4"/>
</svg>
