<svg width="21" height="20" viewBox="0 0 21 20" fill="none" xmlns="http://www.w3.org/2000/svg">
<g id="Frame 74">
<circle id="Ellipse 40" cx="10.0415" cy="10" r="10" fill="#FFF4DF"/>
<path id="Vector 97" d="M11.5 10C11.5 10.5 9.50001 12.25 8.50001 10.5C7.80141 9.27747 7.68348 6.99937 9.00001 6.5C11.0655 5.71652 13.756 7.80437 14 10C14.2761 12.4853 12.5006 14 9.99999 14C7.49999 14 4.49999 13.5 4.49999 10C4.49999 6.09476 6.75611 2.99997 10.5 3C14.6513 3.00004 17 5.84867 17 10C17 14.1513 14.1513 17 9.99999 17C5.99999 17 -0.5 13.5 3.00001 6" stroke="#590000"/>
</g>
</svg>
